<svg width="1131" height="331" xmlns="http://www.w3.org/2000/svg" zoomAndPan="magnify" preserveAspectRatio="xMidYMid meet" version="1.0">
 <g id="Layer_1">
  <title>Layer 1</title>
  <g id="svg_2" stroke="null">
   <defs fill="#000000" transform="translate(40 36) translate(-39 -64) translate(-352 -27) translate(377.906 0) translate(0 -21.9453) translate(41.3789 325.605) scale(0.694982 0.694982) translate(-41.3789 -325.605) translate(3.42298 2.20947) scale(1.26333 1.26333) translate(-3.42298 -2.20947) translate(2.70949 1.74892) scale(0.844496 0.844496) translate(-2.70949 -1.74892) translate(3.20841 2.07096) scale(0.898136 0.898136) translate(-3.20841 -2.07096)" stroke="null">
    <clipPath fill="#000000" id="svg_1" stroke="null">
     <path fill="#000000" id="svg_3" d="m42.375,156.05469l344.25,0l0,142l-344.25,0l0,-142zm0,0" clip-rule="nonzero" stroke="null"/>
    </clipPath>
   </defs>
   <g id="svg_6" clip-path="url(#svg_1)" stroke="null">
    <path id="svg_7" fill="#000000" d="m252.10615,193.03348c3.71206,4.85402 5.92836,10.12166 6.4044,15.71706c2.78859,32.66193 -54.60389,64.22351 -128.18948,70.49524c-33.12236,2.82501 -63.87753,0.03642 -87.94216,-6.85443c24.23632,8.95628 55.39989,14.34357 89.40149,14.34357c77.23521,0 139.8407,-27.78709 139.8407,-62.06443c0,-11.55497 -7.12496,-22.37118 -19.51495,-31.63701" fill-rule="nonzero" stroke="null"/>
   </g>
   <path id="svg_8" fill="#000000" d="m130.27685,103.17676c0,-5.09335 4.12826,-9.21901 9.22422,-9.21901c5.09594,0 9.22681,4.12566 9.22681,9.21901l0,160.79158c0,0.70755 -0.08324,1.3969 -0.23672,2.05763c-5.34047,1.22521 -10.85783,2.31775 -16.52346,3.25682c-1.06393,-1.50095 -1.69085,-3.33227 -1.69085,-5.31446l0,-160.79158l0,0.00001zm34.9953,0c0,-5.09335 4.13086,-9.21901 9.22681,-9.21901c5.09595,0 9.22422,4.12566 9.22422,9.21901l0,151.77547c-5.76709,2.3984 -11.93217,4.6121 -18.45102,6.6047l0,-158.38017l-0.00001,0zm-112.47763,-35.21901l17.35328,0l0,0.50465c0,3.29585 3.12156,5.996 6.93766,5.996l10.70175,0c-2.53627,0 -4.60951,2.69755 -4.60951,5.9934l0,1.01191c0,3.29585 2.07324,5.9934 4.60951,5.9934l11.52376,0l0,0.50465c0,3.29585 2.07324,5.996 4.6069,5.996l9.81211,0l0,177.77547c-5.69425,0.58789 -11.50556,1.03272 -17.4053,1.31365c-15.86794,0.75958 -31.15578,0.30175 -45.47333,-1.18099c14.72856,2.34117 30.5887,3.62361 47.13036,3.62361c77.23001,0 139.84071,-27.78449 139.84071,-62.06443c0,-7.14317 -2.73136,-14.0028 -7.73887,-20.39159c1.73767,3.63662 2.75738,7.41891 2.94728,11.32866c0.75177,15.67543 -11.67464,30.61471 -32.76338,42.56508l0,-152.96947l9.8121,0c2.53627,0 4.60951,-2.70015 4.60951,-5.996l0,-0.50465l11.52116,0c2.53627,0 4.6095,-2.69755 4.6095,-5.9934l0,-1.01191c0,-3.29585 -2.07324,-5.9934 -4.6095,-5.9934l10.70435,0c3.81611,0 6.93767,-2.70015 6.93767,-5.996l0,-0.50465l17.35067,0c3.81611,0 6.93767,-2.69495 6.93767,-5.9934l0,-1.00931c0,-3.29585 -3.12156,-5.9934 -6.93767,-5.9934l-208.40838,0c-3.81611,0 -6.93507,2.69755 -6.93507,5.9934l0,1.00931c0,3.29845 3.11896,5.9934 6.93507,5.9934" fill-rule="nonzero" stroke="null"/>
   <path id="svg_9" fill="#000000" d="m98.20022,49.15035l117.59959,0c3.197,0 5.8139,-2.61431 5.8139,-5.80871c0,-3.19179 -2.6169,-5.8061 -5.8139,-5.8061l-117.59959,0c-3.197,0 -5.81391,2.61431 -5.81391,5.8061c0,3.1944 2.6169,5.80871 5.81391,5.80871" fill-rule="nonzero" stroke="null"/>
  </g>
  <text fill="#000000" stroke="null" x="307.5" y="180.5" id="svg_4" stroke-width="0" font-size="200" font-family="Noto Sans JP" text-anchor="start" xml:space="preserve">AVALON</text>
  <text fill="#000000" stroke="null" x="417.82813" y="304.5" id="svg_5" stroke-width="0" font-size="100" font-family="Noto Sans JP" text-anchor="start" xml:space="preserve">HOTELARIA</text>
 </g>
</svg>